<?xml version="1.0" standalone="no"?>
<!DOCTYPE svg PUBLIC "-//W3C//DTD SVG 20010904//EN"
 "http://www.w3.org/TR/2001/REC-SVG-20010904/DTD/svg10.dtd">
<svg version="1.0" xmlns="http://www.w3.org/2000/svg"
 width="462.000000pt" height="171.000000pt" viewBox="0 0 462.000000 171.000000"
 preserveAspectRatio="xMidYMid meet">

<g transform="translate(0.000000,171.000000) scale(0.100000,-0.100000)"
fill="#000000" stroke="none">
<path d="M2753 1033 c15 -4 17 -20 17 -163 0 -141 -2 -160 -17 -169 -16 -9
-16 -10 5 -11 16 0 22 6 22 21 l0 20 26 -20 c15 -12 40 -21 56 -21 33 0 78 39
77 67 0 15 -2 14 -9 -3 -11 -28 -48 -54 -78 -54 -33 0 -72 43 -72 80 0 81 120
101 150 25 6 -14 9 -15 9 -4 1 8 -10 26 -24 39 -31 29 -85 32 -115 5 l-20 -18
0 106 c0 105 -1 107 -22 106 -17 -1 -19 -2 -5 -6z"/>
<path d="M3003 1033 c15 -4 17 -20 17 -163 0 -141 -2 -160 -17 -169 -16 -9
-16 -10 5 -11 16 0 22 6 22 21 l0 20 26 -20 c29 -23 64 -27 95 -11 20 11 49
60 48 82 0 7 -7 -3 -15 -24 -26 -61 -104 -75 -139 -25 -55 79 60 165 123 92
23 -28 28 -26 12 4 -16 31 -65 46 -100 31 -16 -7 -30 -16 -30 -21 0 -5 -4 -9
-10 -9 -6 0 -10 42 -10 105 0 103 -1 105 -22 104 -17 -1 -19 -2 -5 -6z"/>
<path d="M3252 1033 c9 -2 19 -14 21 -26 4 -18 5 -17 6 6 1 22 -3 27 -21 26
-16 -1 -18 -3 -6 -6z"/>
<path d="M4143 1033 c15 -4 17 -20 17 -163 0 -141 -2 -160 -17 -169 -14 -8
-10 -10 22 -10 32 0 36 2 23 10 -16 9 -18 28 -18 174 0 165 0 165 -22 164 -17
-1 -19 -2 -5 -6z"/>
<path d="M3570 1010 c0 -5 18 -10 40 -10 22 0 40 5 40 10 0 6 -18 10 -40 10
-22 0 -40 -4 -40 -10z"/>
<path d="M3790 1010 c0 -5 9 -10 20 -10 18 0 20 -7 20 -70 l0 -70 -104 0 -105
0 -4 43 -4 42 -1 -50 -2 -50 110 3 110 3 0 -71 c0 -64 -2 -72 -22 -80 -19 -7
-15 -9 22 -9 35 0 41 2 28 10 -16 9 -18 27 -18 154 0 122 2 145 15 145 8 0 15
5 15 10 0 6 -18 10 -40 10 -22 0 -40 -4 -40 -10z"/>
<path d="M2510 1004 c0 -3 7 -12 15 -20 16 -17 18 -14 9 10 -6 15 -24 23 -24
10z"/>
<path d="M835 818 c-42 -101 -82 -186 -88 -190 -6 -3 -16 -4 -24 -1 -7 3 -13
0 -13 -6 0 -7 20 -11 50 -11 28 0 50 5 50 10 0 6 -7 10 -15 10 -20 0 -19 5 11
78 l27 62 81 0 81 0 28 -68 c31 -78 32 -83 13 -76 -8 3 -17 1 -21 -5 -4 -7 11
-11 44 -11 28 0 51 4 51 10 0 5 -6 7 -14 4 -19 -7 -19 -6 -107 199 l-76 177
-78 -182z m139 -6 c7 -21 4 -22 -58 -22 -36 0 -66 4 -66 9 0 8 12 38 46 119
l16 37 28 -61 c15 -33 31 -70 34 -82z"/>
<path d="M1168 970 c22 -9 22 -12 22 -180 0 -163 -1 -170 -20 -170 -11 0 -20
-4 -20 -10 0 -5 23 -10 50 -10 28 0 50 5 50 10 0 6 -9 10 -20 10 -18 0 -20 7
-20 84 l0 84 118 -2 117 -3 3 -81 c3 -82 3 -82 -23 -82 -14 0 -25 -4 -25 -10
0 -5 25 -10 55 -10 30 0 55 5 55 10 0 6 -9 10 -20 10 -19 0 -20 7 -20 176 0
151 2 175 15 171 8 -4 17 -2 20 3 4 6 -17 10 -52 9 -40 -1 -50 -3 -33 -8 24
-6 25 -11 28 -89 l3 -82 -121 0 -120 0 0 84 c0 80 1 85 23 89 12 2 -3 5 -33 5
-42 1 -50 -1 -32 -8z"/>
<path d="M2492 955 c-17 -37 -14 -45 4 -12 9 16 14 31 11 33 -2 2 -9 -7 -15
-21z"/>
<path d="M2541 955 c0 -5 6 -21 14 -35 8 -14 14 -20 14 -15 0 6 -6 21 -14 35
-8 14 -14 21 -14 15z"/>
<path d="M2440 833 c-43 -103 -47 -121 -13 -53 l28 55 73 0 c39 0 72 2 72 5
-1 3 -7 16 -16 30 -14 23 -14 23 -9 3 6 -22 4 -23 -54 -23 -65 0 -67 1 -50 32
6 11 9 22 6 24 -2 2 -19 -31 -37 -73z"/>
<path d="M3403 851 c-88 -55 -16 -192 81 -155 9 3 16 10 16 14 0 5 -13 3 -28
-2 -21 -8 -35 -8 -58 3 -46 22 -36 40 39 67 70 26 79 38 50 65 -30 26 -65 29
-100 8z m92 -17 c9 -9 15 -18 13 -19 -4 -4 -130 -55 -135 -55 -11 0 0 42 18
64 24 31 78 36 104 10z"/>
<path d="M3980 863 c-8 -3 -25 -15 -37 -26 -28 -25 -31 -85 -5 -116 23 -29 81
-38 107 -16 20 16 20 16 -2 6 -34 -17 -59 -13 -89 12 l-27 24 78 30 79 30 -31
32 c-31 31 -43 35 -73 24z m68 -26 c21 -17 14 -24 -50 -50 -61 -24 -63 -25
-66 -5 -6 31 5 48 40 62 32 14 51 12 76 -7z"/>
<path d="M4338 858 c-16 -5 -28 -14 -28 -19 0 -5 -4 -9 -10 -9 -5 0 -10 7 -10
15 0 9 -9 15 -22 14 -17 -1 -19 -2 -5 -6 15 -4 17 -19 17 -133 0 -114 -2 -129
-17 -133 -10 -3 2 -5 27 -4 25 0 35 2 23 4 -21 4 -23 10 -23 74 l0 70 26 -20
c15 -12 39 -21 54 -21 33 0 80 35 79 58 0 13 -3 12 -11 -5 -34 -70 -148 -41
-148 37 0 65 98 96 139 44 12 -15 21 -22 21 -15 0 13 -36 51 -49 51 -5 0 -15
2 -23 4 -7 3 -25 0 -40 -6z"/>
<path d="M3612 810 c0 -14 2 -19 5 -12 2 6 2 18 0 25 -3 6 -5 1 -5 -13z"/>
<path d="M2601 818 c-1 -3 8 -28 19 -53 19 -45 20 -48 3 -61 -16 -12 -13 -13
27 -13 25 1 37 3 27 6 -11 3 -31 31 -47 66 -16 34 -29 59 -29 55z"/>
<path d="M3612 760 c0 -14 2 -19 5 -12 2 6 2 18 0 25 -3 6 -5 1 -5 -13z"/>
<path d="M2370 704 c-24 -13 -24 -14 18 -14 46 0 52 4 25 18 -12 6 -27 4 -43
-4z"/>
<path d="M3255 699 c-15 -6 -9 -8 23 -8 23 -1 42 2 42 7 0 10 -41 11 -65 1z"/>
<path d="M3585 700 c-15 -6 -9 -9 25 -9 34 0 40 3 25 9 -11 5 -22 9 -25 9 -3
0 -14 -4 -25 -9z"/>
</g>
</svg>
