<svg width="528" height="513" viewBox="0 0 528 513" fill="none" xmlns="http://www.w3.org/2000/svg">
<path d="M473.72 76.9391C441.376 3.19009 363.74 -24.5779 302.484 24.9391C278.564 44.2571 263.64 75.0021 234.351 87.3391C206.869 98.9091 172.055 95.5031 142.337 101.769C79.0528 115.029 -6.14922 165.339 0.350781 242.858C3.19778 276.814 26.1038 314.527 37.4268 346.299C50.4268 382.855 58.2268 428.589 92.6378 450.442C151.632 487.96 222.794 457.293 275.938 427.042C304.538 410.779 320.281 400.782 351.078 406.359C379.587 411.559 405.262 429.759 433.121 408.166C454.038 391.955 455.767 359.104 473.33 339.812C493.116 318.076 513.175 316.503 523.458 283.834C535.925 244.197 517.556 219.432 505.141 184.02C492.726 148.608 488.956 111.636 473.72 76.9391Z" fill="#165069"/>
<g opacity="0.7">
<path d="M473.72 76.9391C441.376 3.19009 363.74 -24.5779 302.484 24.9391C278.564 44.2571 263.64 75.0021 234.351 87.3391C206.869 98.9091 172.055 95.5031 142.337 101.769C79.0528 115.029 -6.14922 165.339 0.350781 242.858C3.19778 276.814 26.1038 314.527 37.4268 346.299C50.4268 382.855 58.2268 428.589 92.6378 450.442C151.632 487.96 222.794 457.293 275.938 427.042C304.538 410.779 320.281 400.782 351.078 406.359C379.587 411.559 405.262 429.759 433.121 408.166C454.038 391.955 455.767 359.104 473.33 339.812C493.116 318.076 513.175 316.503 523.458 283.834C535.925 244.197 517.556 219.432 505.141 184.02C492.726 148.608 488.956 111.636 473.72 76.9391Z" fill="white"/>
</g>
<path d="M227.604 512.023C338.588 512.023 428.558 506.418 428.558 499.504C428.558 492.59 338.588 486.985 227.604 486.985C116.621 486.985 26.6504 492.59 26.6504 499.504C26.6504 506.418 116.621 512.023 227.604 512.023Z" fill="#165069"/>
<path opacity="0.8" d="M227.604 512.023C338.588 512.023 428.558 506.418 428.558 499.504C428.558 492.59 338.588 486.985 227.604 486.985C116.621 486.985 26.6504 492.59 26.6504 499.504C26.6504 506.418 116.621 512.023 227.604 512.023Z" fill="white"/>
<path d="M378.612 23.457H176.553C162.603 23.457 151.294 34.7659 151.294 48.716V475.298C151.294 489.248 162.603 500.557 176.553 500.557H378.612C392.562 500.557 403.871 489.248 403.871 475.298V48.716C403.871 34.7659 392.562 23.457 378.612 23.457Z" fill="#263238"/>
<path d="M392.639 75.8469H162.513V448.167H392.639V75.8469Z" fill="white" stroke="#263238" stroke-width="1.33739" stroke-miterlimit="10"/>
<path d="M312.854 226.61C332.333 207.131 332.333 175.548 312.854 156.068C293.374 136.588 261.791 136.588 242.311 156.068C222.831 175.548 222.831 207.131 242.311 226.61C261.791 246.09 293.374 246.09 312.854 226.61Z" fill="#165069"/>
<path d="M343.07 424.754H212.108C211.814 424.756 211.522 424.699 211.249 424.588C210.976 424.476 210.728 424.312 210.519 424.104C210.31 423.896 210.144 423.649 210.031 423.377C209.918 423.105 209.859 422.813 209.859 422.518C209.858 422.222 209.915 421.929 210.027 421.655C210.14 421.382 210.305 421.133 210.514 420.924C210.723 420.715 210.972 420.549 211.246 420.437C211.519 420.324 211.813 420.267 212.108 420.269H343.07C343.365 420.269 343.657 420.327 343.929 420.441C344.201 420.554 344.448 420.72 344.656 420.929C344.864 421.138 345.028 421.386 345.14 421.658C345.252 421.931 345.308 422.223 345.306 422.518C345.306 423.111 345.071 423.68 344.651 424.099C344.232 424.519 343.663 424.754 343.07 424.754Z" fill="#165069"/>
<path d="M347.334 269.261H207.831C204.952 269.261 202.618 271.595 202.618 274.474V290.919C202.618 293.798 204.952 296.132 207.831 296.132H347.334C350.213 296.132 352.547 293.798 352.547 290.919V274.474C352.547 271.595 350.213 269.261 347.334 269.261Z" fill="#165069"/>
<path d="M347.334 319.519H207.831C204.952 319.519 202.618 321.853 202.618 324.732V341.177C202.618 344.056 204.952 346.39 207.831 346.39H347.334C350.213 346.39 352.547 344.056 352.547 341.177V324.732C352.547 321.853 350.213 319.519 347.334 319.519Z" fill="#165069"/>
<path d="M302.418 216.221L287.742 207.771V200.79C289.867 198.219 291.406 195.216 292.253 191.989C292.758 192.169 293.29 192.261 293.826 192.262C295.646 192.262 296.803 186.62 296.998 182.59C299.117 178.105 296.231 175.479 296.231 175.479C296.231 175.479 297.427 174.283 298.22 169.486C299.013 164.689 295.424 166.691 292.63 162.297C289.834 157.903 287.833 153.119 278.655 153.119C276.126 153.036 273.63 153.716 271.492 155.069C269.355 156.423 267.674 158.389 266.669 160.711C264.384 160.719 262.107 160.985 259.883 161.504C257.075 162.297 256.282 171.488 258.674 175.089C259.744 177.057 260.316 179.258 260.338 181.498C259.701 180.718 259.038 180.51 258.674 182.278C257.881 186.269 261.079 191.859 261.079 191.859L262.73 191.391C263.561 194.839 265.166 198.053 267.423 200.79V207.771L252.746 216.221C251.031 217.211 249.608 218.634 248.618 220.347C247.627 222.061 247.105 224.005 247.104 225.984V230.82C255.833 237.563 266.552 241.222 277.582 241.222C288.612 241.222 299.331 237.563 308.061 230.82V225.984C308.062 224.004 307.54 222.059 306.55 220.345C305.559 218.631 304.134 217.209 302.418 216.221Z" fill="#263238"/>
<path d="M221.611 339.708C221.274 339.703 220.953 339.568 220.714 339.331C220.586 339.217 220.484 339.076 220.414 338.92C220.345 338.763 220.309 338.593 220.311 338.421C220.315 338.187 220.382 337.957 220.506 337.758L222.846 334.014L218.283 334.157C218.111 334.168 217.938 334.142 217.777 334.082C217.616 334.021 217.469 333.927 217.347 333.806C217.135 333.568 217.018 333.26 217.018 332.942C217.018 332.623 217.135 332.315 217.347 332.077C217.466 331.952 217.612 331.854 217.774 331.791C217.936 331.728 218.11 331.701 218.283 331.713L222.781 331.882L220.467 328.151C220.341 327.948 220.273 327.714 220.272 327.475C220.27 327.304 220.306 327.134 220.375 326.977C220.445 326.82 220.547 326.68 220.675 326.565C220.914 326.328 221.235 326.193 221.572 326.188C221.793 326.19 222.01 326.254 222.196 326.374C222.383 326.493 222.531 326.663 222.625 326.864L224.848 330.881L227.045 326.89C227.149 326.677 227.309 326.497 227.509 326.368C227.708 326.24 227.939 326.169 228.176 326.162C228.34 326.163 228.502 326.198 228.652 326.265C228.802 326.333 228.937 326.43 229.047 326.552C229.285 326.8 229.416 327.131 229.411 327.475C229.41 327.698 229.352 327.918 229.242 328.112L226.889 331.882L231.452 331.713C231.625 331.701 231.798 331.728 231.96 331.791C232.122 331.854 232.268 331.952 232.388 332.077C232.609 332.307 232.731 332.616 232.726 332.935C232.725 333.257 232.604 333.568 232.388 333.806C232.265 333.927 232.119 334.021 231.957 334.082C231.796 334.142 231.624 334.168 231.452 334.157L226.863 334.014L229.151 337.719C229.279 337.926 229.346 338.165 229.346 338.408C229.346 338.753 229.209 339.084 228.965 339.327C228.721 339.571 228.39 339.708 228.046 339.708C227.823 339.705 227.606 339.637 227.421 339.512C227.236 339.388 227.092 339.212 227.006 339.006L224.835 335.106L222.677 339.006C222.581 339.21 222.431 339.383 222.243 339.507C222.055 339.631 221.836 339.701 221.611 339.708Z" fill="#263238"/>
<path d="M242.697 339.708C242.361 339.703 242.039 339.568 241.8 339.331C241.672 339.217 241.57 339.076 241.501 338.92C241.431 338.763 241.396 338.593 241.397 338.421C241.401 338.187 241.469 337.957 241.592 337.758L243.932 334.014L239.382 334.157C239.209 334.165 239.035 334.138 238.872 334.078C238.709 334.017 238.56 333.925 238.433 333.806C238.261 333.628 238.146 333.402 238.103 333.158C238.061 332.914 238.093 332.662 238.195 332.437C238.298 332.211 238.466 332.021 238.677 331.892C238.889 331.763 239.135 331.701 239.382 331.713L243.867 331.882L241.553 328.151C241.427 327.948 241.36 327.714 241.358 327.475C241.357 327.304 241.392 327.134 241.462 326.977C241.531 326.82 241.633 326.68 241.761 326.565C242 326.328 242.322 326.193 242.658 326.188C242.88 326.19 243.096 326.254 243.283 326.374C243.469 326.493 243.618 326.663 243.711 326.864L245.934 330.881L248.131 326.89C248.235 326.677 248.396 326.497 248.595 326.368C248.795 326.24 249.025 326.169 249.262 326.162C249.427 326.161 249.59 326.196 249.74 326.263C249.89 326.33 250.024 326.429 250.133 326.552C250.254 326.674 250.349 326.818 250.414 326.976C250.478 327.134 250.511 327.304 250.51 327.475C250.506 327.7 250.443 327.919 250.328 328.112L247.975 331.882L252.551 331.739C252.722 331.728 252.894 331.754 253.054 331.817C253.213 331.88 253.357 331.978 253.474 332.103C253.696 332.333 253.817 332.642 253.812 332.961C253.811 333.283 253.691 333.594 253.474 333.832C253.354 333.953 253.21 334.047 253.051 334.107C252.891 334.168 252.721 334.194 252.551 334.183L247.949 334.04L250.237 337.745C250.365 337.952 250.433 338.191 250.432 338.434C250.432 338.779 250.295 339.11 250.051 339.353C249.808 339.597 249.477 339.734 249.132 339.734C248.909 339.731 248.692 339.663 248.507 339.538C248.323 339.414 248.178 339.238 248.092 339.032L245.921 335.132L243.763 339.032C243.664 339.231 243.512 339.399 243.324 339.518C243.136 339.638 242.92 339.703 242.697 339.708Z" fill="#263238"/>
<path d="M263.796 339.708C263.455 339.707 263.128 339.571 262.886 339.331C262.758 339.217 262.656 339.076 262.586 338.92C262.517 338.763 262.482 338.593 262.483 338.421C262.487 338.187 262.554 337.957 262.678 337.758L265.018 334.014L260.468 334.157C260.223 334.167 259.98 334.104 259.772 333.975C259.563 333.847 259.397 333.659 259.295 333.436C259.193 333.213 259.16 332.964 259.2 332.722C259.24 332.48 259.351 332.256 259.519 332.077C259.642 331.952 259.79 331.855 259.954 331.792C260.117 331.729 260.293 331.702 260.468 331.713L264.953 331.882L262.639 328.151C262.513 327.948 262.445 327.714 262.444 327.475C262.448 327.304 262.486 327.136 262.555 326.98C262.624 326.824 262.723 326.683 262.847 326.565C263.089 326.325 263.416 326.19 263.757 326.188C263.976 326.192 264.19 326.257 264.374 326.377C264.558 326.497 264.704 326.665 264.797 326.864L267.02 330.881L269.217 326.89C269.321 326.677 269.482 326.497 269.681 326.368C269.88 326.24 270.111 326.169 270.348 326.162C270.512 326.161 270.675 326.196 270.825 326.263C270.976 326.33 271.11 326.429 271.219 326.552C271.339 326.674 271.435 326.818 271.499 326.976C271.564 327.134 271.597 327.304 271.596 327.475C271.591 327.7 271.529 327.919 271.414 328.112L269.061 331.882L273.637 331.713C273.805 331.696 273.975 331.716 274.135 331.77C274.295 331.824 274.442 331.912 274.565 332.028C274.688 332.144 274.785 332.285 274.849 332.441C274.913 332.598 274.943 332.766 274.937 332.935C274.94 333.256 274.824 333.566 274.612 333.806C274.489 333.927 274.343 334.021 274.181 334.082C274.02 334.142 273.848 334.168 273.676 334.157L269.087 334.014L271.362 337.719C271.49 337.926 271.558 338.165 271.557 338.408C271.553 338.579 271.515 338.747 271.446 338.903C271.377 339.059 271.277 339.2 271.154 339.318C271.041 339.44 270.904 339.537 270.752 339.604C270.6 339.671 270.436 339.707 270.27 339.708C270.049 339.704 269.834 339.636 269.651 339.511C269.469 339.386 269.327 339.211 269.243 339.006L267.059 335.106L264.901 339.006C264.804 339.217 264.648 339.395 264.452 339.52C264.256 339.644 264.028 339.71 263.796 339.708Z" fill="#263238"/>
<path d="M284.881 339.708C284.54 339.707 284.214 339.571 283.972 339.331C283.727 339.091 283.586 338.764 283.581 338.421C283.577 338.187 283.641 337.957 283.764 337.758L286.103 334.014L281.553 334.157C281.38 334.165 281.206 334.138 281.043 334.078C280.88 334.017 280.731 333.925 280.604 333.806C280.392 333.568 280.275 333.26 280.275 332.942C280.275 332.623 280.392 332.315 280.604 332.077C280.73 331.956 280.879 331.861 281.042 331.799C281.205 331.736 281.379 331.707 281.553 331.713L286.051 331.882L283.75 328.151C283.625 327.948 283.557 327.714 283.556 327.475C283.56 327.304 283.597 327.136 283.666 326.98C283.736 326.824 283.835 326.683 283.958 326.565C284.201 326.325 284.527 326.19 284.868 326.188C285.09 326.19 285.307 326.254 285.493 326.374C285.679 326.493 285.828 326.663 285.922 326.864L288.131 330.881L290.328 326.89C290.433 326.677 290.593 326.497 290.793 326.368C290.992 326.24 291.223 326.169 291.459 326.162C291.624 326.161 291.787 326.196 291.937 326.263C292.087 326.33 292.221 326.429 292.331 326.552C292.451 326.674 292.546 326.818 292.611 326.976C292.676 327.134 292.709 327.304 292.708 327.475C292.703 327.7 292.64 327.919 292.525 328.112L290.172 331.882L294.748 331.713C294.917 331.696 295.087 331.716 295.247 331.77C295.407 331.824 295.553 331.912 295.677 332.028C295.8 332.144 295.897 332.285 295.961 332.441C296.025 332.598 296.055 332.766 296.048 332.935C296.051 333.256 295.935 333.566 295.723 333.806C295.601 333.927 295.454 334.021 295.293 334.082C295.132 334.142 294.959 334.168 294.787 334.157L290.198 334.014L292.473 337.719C292.602 337.926 292.669 338.165 292.668 338.408C292.67 338.58 292.634 338.75 292.565 338.907C292.495 339.063 292.393 339.204 292.265 339.318C292.152 339.44 292.016 339.537 291.864 339.604C291.712 339.671 291.548 339.707 291.381 339.708C291.16 339.704 290.945 339.636 290.763 339.511C290.58 339.386 290.438 339.211 290.354 339.006L288.17 335.106L286.012 339.006C285.913 339.221 285.753 339.402 285.552 339.527C285.351 339.652 285.118 339.715 284.881 339.708Z" fill="#263238"/>
<path d="M305.968 339.708C305.627 339.707 305.301 339.571 305.058 339.331C304.857 339.127 304.729 338.862 304.693 338.578C304.658 338.293 304.718 338.005 304.863 337.758L307.19 334.014L302.64 334.157C302.467 334.165 302.293 334.138 302.13 334.078C301.967 334.017 301.818 333.925 301.691 333.806C301.479 333.568 301.362 333.26 301.362 332.942C301.362 332.623 301.479 332.315 301.691 332.077C301.817 331.956 301.966 331.861 302.129 331.799C302.292 331.736 302.466 331.707 302.64 331.713L307.138 331.882L304.824 328.151C304.698 327.948 304.631 327.714 304.629 327.475C304.634 327.132 304.774 326.805 305.019 326.565C305.262 326.325 305.588 326.19 305.929 326.188C306.151 326.19 306.367 326.254 306.554 326.374C306.74 326.493 306.889 326.663 306.982 326.864L309.192 330.881L311.389 326.89C311.494 326.677 311.654 326.497 311.853 326.369C312.053 326.24 312.283 326.169 312.52 326.162C312.687 326.161 312.852 326.196 313.004 326.263C313.156 326.33 313.293 326.429 313.404 326.552C313.643 326.8 313.774 327.131 313.768 327.475C313.764 327.7 313.701 327.919 313.586 328.112L311.233 331.882L315.809 331.713C315.978 331.696 316.148 331.716 316.308 331.77C316.468 331.824 316.614 331.912 316.738 332.028C316.861 332.144 316.958 332.285 317.022 332.441C317.086 332.598 317.116 332.766 317.109 332.935C317.112 333.256 316.996 333.566 316.784 333.806C316.662 333.927 316.515 334.021 316.354 334.082C316.193 334.142 316.02 334.168 315.848 334.157L311.259 334.014L313.534 337.719C313.663 337.926 313.73 338.165 313.729 338.408C313.731 338.58 313.695 338.75 313.626 338.907C313.556 339.063 313.454 339.204 313.326 339.318C313.213 339.44 313.077 339.537 312.925 339.604C312.773 339.671 312.609 339.707 312.442 339.708C312.221 339.704 312.006 339.636 311.824 339.511C311.641 339.386 311.499 339.211 311.415 339.006L309.231 335.106L307.073 339.006C306.976 339.217 306.82 339.395 306.624 339.52C306.428 339.644 306.201 339.71 305.968 339.708Z" fill="#263238"/>
<path d="M327.054 339.708C326.717 339.703 326.396 339.568 326.157 339.331C326.029 339.217 325.927 339.076 325.857 338.92C325.788 338.763 325.753 338.593 325.754 338.421C325.758 338.187 325.825 337.958 325.949 337.758L328.276 334.014L323.726 334.157C323.559 334.17 323.39 334.147 323.232 334.092C323.074 334.036 322.929 333.947 322.807 333.832C322.684 333.718 322.587 333.578 322.522 333.424C322.456 333.269 322.424 333.103 322.426 332.935C322.425 332.776 322.456 332.618 322.516 332.471C322.576 332.324 322.665 332.19 322.777 332.077C322.897 331.952 323.043 331.854 323.204 331.791C323.366 331.728 323.54 331.701 323.713 331.713L328.211 331.882L325.897 328.151C325.771 327.948 325.704 327.714 325.702 327.475C325.707 327.132 325.847 326.805 326.092 326.565C326.334 326.325 326.661 326.19 327.002 326.188C327.223 326.19 327.44 326.254 327.626 326.374C327.813 326.493 327.961 326.663 328.055 326.864L330.265 330.881L332.475 326.89C332.578 326.679 332.737 326.5 332.933 326.372C333.13 326.244 333.358 326.171 333.593 326.162C333.759 326.161 333.924 326.196 334.077 326.263C334.229 326.33 334.365 326.429 334.477 326.552C334.715 326.8 334.846 327.131 334.841 327.475C334.84 327.698 334.782 327.918 334.672 328.112L332.319 331.882L336.882 331.713C337.055 331.701 337.229 331.728 337.39 331.791C337.552 331.854 337.698 331.952 337.818 332.077C338.039 332.307 338.161 332.616 338.156 332.935C338.155 333.257 338.035 333.568 337.818 333.806C337.695 333.927 337.549 334.021 337.387 334.082C337.226 334.142 337.054 334.168 336.882 334.157L332.293 334.014L334.568 337.719C334.696 337.926 334.764 338.165 334.763 338.408C334.758 338.751 334.618 339.078 334.373 339.318C334.136 339.56 333.814 339.7 333.476 339.708C333.255 339.704 333.04 339.636 332.857 339.511C332.675 339.386 332.533 339.211 332.449 339.006L330.265 335.106L328.107 339.006C328.013 339.209 327.865 339.382 327.68 339.506C327.494 339.63 327.277 339.7 327.054 339.708Z" fill="#263238"/>
<g style="mix-blend-mode:multiply">
<path d="M392.639 76.3411H162.513V90.7581H392.639V76.3411Z" fill="#165069"/>
</g>
<path d="M302.601 49.782H252.551C251.647 49.782 250.781 49.4231 250.142 48.7844C249.503 48.1456 249.145 47.2793 249.145 46.376C249.145 45.4726 249.503 44.6063 250.142 43.9676C250.781 43.3288 251.647 42.97 252.551 42.97H302.601C303.504 42.97 304.37 43.3288 305.009 43.9676C305.648 44.6063 306.007 45.4726 306.007 46.376C306.007 47.2793 305.648 48.1456 305.009 48.7844C304.37 49.4231 303.504 49.782 302.601 49.782Z" fill="#165069" stroke="#263238" stroke-width="1.33739" stroke-linecap="round" stroke-linejoin="round"/>
<path d="M291.226 469.201C291.228 466.5 290.43 463.859 288.931 461.613C287.432 459.366 285.3 457.614 282.805 456.58C280.311 455.545 277.565 455.273 274.916 455.8C272.267 456.326 269.834 457.626 267.924 459.536C266.014 461.446 264.714 463.879 264.187 466.528C263.661 469.177 263.933 471.923 264.967 474.418C266.002 476.912 267.754 479.044 270 480.543C272.247 482.042 274.888 482.841 277.589 482.838C281.204 482.835 284.671 481.397 287.228 478.84C289.784 476.283 291.222 472.817 291.226 469.201Z" fill="#165069"/>
<path d="M284.505 462.285H270.673V476.117H284.505V462.285Z" fill="#165069" stroke="#263238" stroke-width="1.33739" stroke-linecap="round" stroke-linejoin="round"/>
<path d="M442.351 312.239C442.351 312.239 424.229 266.193 440.362 260.72C457.158 255.013 456.417 285.42 455.767 300.24C454.402 331.908 450.905 337.797 448.292 330.062L442.351 312.239ZM436.904 348.158C441.883 354.658 443.287 347.924 434.304 317.517C430.092 303.217 420.94 274.292 406.9 285.147C393.419 295.547 425.503 333.247 425.503 333.247L436.904 348.158ZM427.284 374.548C432.029 378.76 432.12 373.443 420.849 351.486C415.558 341.203 404.365 320.39 395.2 330.686C386.399 340.618 416.39 364.759 416.39 364.759L427.284 374.548ZM416.884 405.93C421.629 410.155 421.72 404.825 410.449 382.881C405.158 372.598 393.965 351.772 384.8 362.081C376.051 372.039 405.951 396.18 405.951 396.18L416.884 405.93ZM446.914 342.048C439.322 345.012 445.354 348.236 477.061 348.145C491.933 348.145 522.301 347.469 515.827 330.946C509.626 315.073 464.464 335.288 464.464 335.288L446.914 342.048ZM438.269 363.16C430.235 364.551 435.513 368.919 466.609 375.133C481.182 378.058 511.069 383.453 508.014 366.033C505.089 349.237 456.807 360.079 456.807 360.079L438.269 363.16ZM428.597 388.939C421.759 389.927 426.127 393.736 452.27 399.716C464.529 402.524 489.684 407.789 487.5 392.93C485.42 378.63 444.34 386.716 444.34 386.716L428.597 388.939ZM421.252 412.82C414.557 414.523 419.302 417.851 445.952 421.023C458.432 422.505 484.003 425.079 480.272 410.532C476.671 396.57 436.683 408.933 436.683 408.933L421.252 412.82ZM460.434 316.139C456.534 324.875 464.633 323.549 492.167 299.525C505.063 288.254 530.933 264.672 510.445 252.933C490.776 241.649 469.625 296.093 469.625 296.093L460.434 316.139ZM422.266 443.929C418.145 446.334 422.188 447.27 441.09 443.5C449.956 441.745 467.987 437.845 461.89 430.149C455.988 422.739 431.808 438.339 431.808 438.339L422.266 443.929Z" fill="#165069"/>
<path opacity="0.3" d="M442.351 312.239C442.351 312.239 424.229 266.193 440.362 260.72C457.158 255.013 456.417 285.42 455.767 300.24C454.402 331.908 450.905 337.797 448.292 330.062L442.351 312.239ZM436.904 348.158C441.883 354.658 443.287 347.924 434.304 317.517C430.092 303.217 420.94 274.292 406.9 285.147C393.419 295.547 425.503 333.247 425.503 333.247L436.904 348.158ZM427.284 374.548C432.029 378.76 432.12 373.443 420.849 351.486C415.558 341.203 404.365 320.39 395.2 330.686C386.399 340.618 416.39 364.759 416.39 364.759L427.284 374.548ZM416.884 405.93C421.629 410.155 421.72 404.825 410.449 382.881C405.158 372.598 393.965 351.772 384.8 362.081C376.051 372.039 405.951 396.18 405.951 396.18L416.884 405.93ZM446.914 342.048C439.322 345.012 445.354 348.236 477.061 348.145C491.933 348.145 522.301 347.469 515.827 330.946C509.626 315.073 464.464 335.288 464.464 335.288L446.914 342.048ZM438.269 363.16C430.235 364.551 435.513 368.919 466.609 375.133C481.182 378.058 511.069 383.453 508.014 366.033C505.089 349.237 456.807 360.079 456.807 360.079L438.269 363.16ZM428.597 388.939C421.759 389.927 426.127 393.736 452.27 399.716C464.529 402.524 489.684 407.789 487.5 392.93C485.42 378.63 444.34 386.716 444.34 386.716L428.597 388.939ZM421.252 412.82C414.557 414.523 419.302 417.851 445.952 421.023C458.432 422.505 484.003 425.079 480.272 410.532C476.671 396.57 436.683 408.933 436.683 408.933L421.252 412.82ZM460.434 316.139C456.534 324.875 464.633 323.549 492.167 299.525C505.063 288.254 530.933 264.672 510.445 252.933C490.776 241.649 469.625 296.093 469.625 296.093L460.434 316.139ZM422.266 443.929C418.145 446.334 422.188 447.27 441.09 443.5C449.956 441.745 467.987 437.845 461.89 430.149C455.988 422.739 431.808 438.339 431.808 438.339L422.266 443.929Z" fill="white"/>
<path d="M450.346 333.676L447.187 281.117L450.346 333.676ZM440.349 351.018L420.381 305.817L440.349 351.018ZM491.881 337.875L444.028 344.739L491.881 337.875ZM430.001 375.38L404.092 342.139L430.001 375.38ZM434.551 365.188L470.249 366.982L434.551 365.188ZM426.101 390.681L453.401 393.385L426.101 390.681ZM419.51 406.879L405.951 386.482L419.51 406.879ZM417.95 414.081L450.047 414.38L417.95 414.081ZM411.45 474.297C411.665 474.28 411.865 474.18 412.006 474.017C412.148 473.853 412.219 473.641 412.204 473.426C410.163 442.772 422.019 392.566 441.038 351.356C453.193 325.018 500.838 273.252 501.345 272.732C501.499 272.579 501.585 272.37 501.585 272.154C501.585 271.937 501.499 271.729 501.345 271.575C501.271 271.5 501.181 271.44 501.083 271.399C500.985 271.358 500.88 271.337 500.773 271.337C500.667 271.337 500.562 271.358 500.464 271.399C500.365 271.44 500.276 271.5 500.201 271.575C499.72 272.095 451.88 324.056 439.621 350.628C420.251 392.839 408.551 442.135 410.631 473.53C410.648 473.737 410.741 473.93 410.892 474.072C411.044 474.214 411.243 474.294 411.45 474.297ZM450.333 334.482C450.548 334.469 450.749 334.371 450.893 334.21C451.037 334.05 451.111 333.839 451.1 333.624L447.993 281.039C447.988 280.932 447.962 280.827 447.916 280.73C447.87 280.633 447.805 280.547 447.725 280.475C447.646 280.404 447.552 280.349 447.451 280.314C447.35 280.279 447.242 280.265 447.135 280.272C446.92 280.285 446.719 280.383 446.576 280.544C446.432 280.704 446.358 280.915 446.368 281.13L449.527 333.689C449.537 333.896 449.627 334.091 449.777 334.234C449.927 334.377 450.126 334.456 450.333 334.456V334.482ZM440.635 351.759C440.83 351.671 440.983 351.51 441.06 351.311C441.138 351.112 441.135 350.89 441.051 350.693L421.07 305.492C420.984 305.296 420.824 305.141 420.624 305.063C420.424 304.985 420.201 304.99 420.004 305.076C419.808 305.162 419.654 305.323 419.576 305.523C419.498 305.723 419.502 305.946 419.588 306.142L439.556 351.343C439.619 351.488 439.722 351.612 439.854 351.7C439.985 351.787 440.139 351.835 440.297 351.837C440.432 351.844 440.566 351.817 440.687 351.759H440.635ZM444.093 345.519L491.92 338.681C492.036 338.679 492.15 338.652 492.254 338.602C492.358 338.553 492.451 338.482 492.526 338.394C492.601 338.306 492.657 338.204 492.689 338.093C492.722 337.982 492.731 337.865 492.715 337.751C492.699 337.637 492.659 337.527 492.598 337.429C492.537 337.331 492.456 337.247 492.36 337.182C492.264 337.118 492.156 337.075 492.042 337.055C491.928 337.036 491.811 337.04 491.699 337.069L443.872 343.907C443.659 343.921 443.459 344.019 443.318 344.18C443.176 344.341 443.105 344.551 443.118 344.765C443.132 344.979 443.23 345.178 443.391 345.32C443.552 345.461 443.763 345.533 443.976 345.519H444.093ZM430.456 376.03C430.626 375.897 430.737 375.702 430.763 375.488C430.79 375.273 430.731 375.057 430.599 374.886L404.677 341.58C404.545 341.408 404.349 341.295 404.133 341.267C403.917 341.239 403.699 341.298 403.527 341.431C403.355 341.563 403.242 341.759 403.214 341.975C403.186 342.191 403.245 342.409 403.377 342.581L429.351 375.939C429.427 376.036 429.523 376.115 429.634 376.169C429.744 376.223 429.865 376.251 429.988 376.251C430.182 376.241 430.367 376.163 430.508 376.03H430.456ZM470.964 367.021C470.972 366.806 470.894 366.597 470.748 366.439C470.602 366.281 470.399 366.186 470.184 366.176L434.551 364.369C434.351 364.383 434.163 364.47 434.023 364.613C433.882 364.756 433.799 364.946 433.79 365.147C433.78 365.347 433.844 365.544 433.97 365.701C434.096 365.857 434.275 365.961 434.473 365.994L470.171 367.801C470.386 367.808 470.596 367.73 470.754 367.584C470.912 367.438 471.006 367.236 471.016 367.021H470.964ZM454.155 393.463C454.168 393.356 454.159 393.248 454.129 393.144C454.099 393.041 454.049 392.945 453.981 392.861C453.913 392.777 453.829 392.708 453.734 392.657C453.639 392.607 453.535 392.576 453.427 392.566L426.127 389.875C426.021 389.864 425.914 389.875 425.813 389.905C425.711 389.936 425.616 389.987 425.534 390.055C425.451 390.122 425.383 390.206 425.334 390.3C425.284 390.394 425.253 390.497 425.243 390.603C425.225 390.816 425.291 391.028 425.427 391.193C425.563 391.359 425.759 391.464 425.971 391.487L453.271 394.191H453.349C453.559 394.206 453.766 394.138 453.926 394.002C454.087 393.866 454.188 393.672 454.207 393.463H454.155ZM419.9 407.555C420.081 407.436 420.207 407.25 420.251 407.038C420.295 406.826 420.253 406.605 420.134 406.424L406.64 386.027C406.517 385.851 406.33 385.73 406.119 385.689C405.909 385.648 405.69 385.69 405.509 385.806C405.329 385.925 405.203 386.111 405.159 386.323C405.115 386.535 405.157 386.756 405.275 386.937L418.769 407.334C418.847 407.446 418.95 407.537 419.069 407.6C419.189 407.664 419.323 407.697 419.458 407.698C419.635 407.708 419.809 407.657 419.952 407.555H419.9ZM450.866 414.38C450.863 414.166 450.778 413.962 450.628 413.809C450.477 413.657 450.274 413.568 450.06 413.561L417.963 413.262C417.75 413.262 417.545 413.347 417.394 413.498C417.242 413.649 417.157 413.854 417.157 414.068C417.154 414.175 417.172 414.282 417.211 414.383C417.25 414.483 417.309 414.574 417.385 414.65C417.46 414.727 417.55 414.787 417.65 414.828C417.749 414.869 417.856 414.889 417.963 414.887L450.06 415.186C450.17 415.191 450.28 415.174 450.383 415.136C450.486 415.098 450.58 415.04 450.66 414.965C450.74 414.89 450.804 414.799 450.849 414.699C450.893 414.598 450.917 414.49 450.918 414.38H450.866ZM407.797 462.376C407.862 462.233 413.335 447.153 429.793 443.552C430.005 443.505 430.19 443.377 430.307 443.194C430.424 443.011 430.464 442.789 430.417 442.577C430.365 442.369 430.234 442.19 430.053 442.076C429.871 441.962 429.652 441.923 429.442 441.966C412.087 445.762 406.328 461.687 406.263 461.843C406.196 462.048 406.212 462.272 406.307 462.466C406.401 462.66 406.567 462.809 406.77 462.883H407.03C407.203 462.898 407.376 462.857 407.524 462.765C407.672 462.674 407.786 462.537 407.849 462.376H407.797ZM411.45 474.297C411.665 474.28 411.865 474.18 412.006 474.017C412.148 473.853 412.219 473.641 412.204 473.426C410.163 442.772 422.019 392.566 441.038 351.356C453.193 325.018 500.838 273.252 501.345 272.732C501.499 272.579 501.585 272.37 501.585 272.154C501.585 271.937 501.499 271.729 501.345 271.575C501.271 271.5 501.181 271.44 501.083 271.399C500.985 271.358 500.88 271.337 500.773 271.337C500.667 271.337 500.562 271.358 500.464 271.399C500.365 271.44 500.276 271.5 500.201 271.575C499.72 272.095 451.88 324.056 439.621 350.628C420.251 392.839 408.551 442.135 410.631 473.53C410.648 473.737 410.741 473.93 410.892 474.072C411.044 474.214 411.243 474.294 411.45 474.297ZM450.333 334.482C450.548 334.469 450.749 334.371 450.893 334.21C451.037 334.05 451.111 333.839 451.1 333.624L447.993 281.039C447.988 280.932 447.962 280.827 447.916 280.73C447.87 280.633 447.805 280.547 447.725 280.475C447.646 280.404 447.552 280.349 447.451 280.314C447.35 280.279 447.242 280.265 447.135 280.272C446.92 280.285 446.719 280.383 446.576 280.544C446.432 280.704 446.358 280.915 446.368 281.13L449.527 333.689C449.537 333.896 449.627 334.091 449.777 334.234C449.927 334.377 450.126 334.456 450.333 334.456V334.482ZM440.635 351.759C440.83 351.671 440.983 351.51 441.06 351.311C441.138 351.112 441.135 350.89 441.051 350.693L421.07 305.492C420.984 305.296 420.824 305.141 420.624 305.063C420.424 304.985 420.201 304.99 420.004 305.076C419.808 305.162 419.654 305.323 419.576 305.523C419.498 305.723 419.502 305.946 419.588 306.142L439.556 351.343C439.619 351.488 439.722 351.612 439.854 351.7C439.985 351.787 440.139 351.835 440.297 351.837C440.432 351.844 440.566 351.817 440.687 351.759H440.635ZM444.093 345.519L491.92 338.681C492.036 338.679 492.15 338.652 492.254 338.602C492.358 338.553 492.451 338.482 492.526 338.394C492.601 338.306 492.657 338.204 492.689 338.093C492.722 337.982 492.731 337.865 492.715 337.751C492.699 337.637 492.659 337.527 492.598 337.429C492.537 337.331 492.456 337.247 492.36 337.182C492.264 337.118 492.156 337.075 492.042 337.055C491.928 337.036 491.811 337.04 491.699 337.069L443.872 343.907C443.659 343.921 443.459 344.019 443.318 344.18C443.176 344.341 443.105 344.551 443.118 344.765C443.132 344.979 443.23 345.178 443.391 345.32C443.552 345.461 443.763 345.533 443.976 345.519H444.093ZM430.456 376.03C430.626 375.897 430.737 375.702 430.763 375.488C430.79 375.273 430.731 375.057 430.599 374.886L404.677 341.58C404.612 341.495 404.53 341.423 404.436 341.369C404.343 341.316 404.24 341.281 404.133 341.267C404.026 341.253 403.918 341.26 403.814 341.289C403.71 341.317 403.612 341.365 403.527 341.431C403.442 341.496 403.37 341.578 403.316 341.672C403.263 341.765 403.228 341.868 403.214 341.975C403.2 342.082 403.207 342.19 403.235 342.294C403.263 342.398 403.312 342.496 403.377 342.581L429.351 375.939C429.427 376.036 429.523 376.115 429.634 376.169C429.744 376.223 429.865 376.251 429.988 376.251C430.182 376.241 430.367 376.163 430.508 376.03H430.456ZM470.964 367.021C470.972 366.806 470.894 366.597 470.748 366.439C470.602 366.281 470.399 366.186 470.184 366.176L434.551 364.369C434.351 364.383 434.163 364.47 434.023 364.613C433.882 364.756 433.799 364.946 433.79 365.147C433.78 365.347 433.844 365.544 433.97 365.701C434.096 365.857 434.275 365.961 434.473 365.994L470.171 367.801C470.386 367.808 470.596 367.73 470.754 367.584C470.912 367.438 471.006 367.236 471.016 367.021H470.964ZM454.155 393.463C454.168 393.356 454.159 393.248 454.129 393.144C454.099 393.041 454.049 392.945 453.981 392.861C453.913 392.777 453.829 392.708 453.734 392.657C453.639 392.607 453.535 392.576 453.427 392.566L426.127 389.875C426.021 389.864 425.914 389.875 425.813 389.905C425.711 389.936 425.616 389.987 425.534 390.055C425.451 390.122 425.383 390.206 425.334 390.3C425.284 390.394 425.253 390.497 425.243 390.603C425.225 390.816 425.291 391.028 425.427 391.193C425.563 391.359 425.759 391.464 425.971 391.487L453.271 394.191H453.349C453.559 394.206 453.766 394.138 453.926 394.002C454.087 393.866 454.188 393.672 454.207 393.463H454.155ZM419.9 407.555C420.081 407.436 420.207 407.25 420.251 407.038C420.295 406.826 420.253 406.605 420.134 406.424L406.64 386.027C406.517 385.851 406.33 385.73 406.119 385.689C405.909 385.648 405.69 385.69 405.509 385.806C405.329 385.925 405.203 386.111 405.159 386.323C405.115 386.535 405.157 386.756 405.275 386.937L418.769 407.334C418.847 407.446 418.95 407.537 419.069 407.6C419.189 407.664 419.323 407.697 419.458 407.698C419.635 407.708 419.809 407.657 419.952 407.555H419.9ZM450.866 414.38C450.863 414.166 450.778 413.962 450.628 413.809C450.477 413.657 450.274 413.568 450.06 413.561L417.963 413.262C417.75 413.262 417.545 413.347 417.394 413.498C417.242 413.649 417.157 413.854 417.157 414.068C417.154 414.175 417.172 414.282 417.211 414.383C417.25 414.483 417.309 414.574 417.385 414.65C417.46 414.727 417.55 414.787 417.65 414.828C417.749 414.869 417.856 414.889 417.963 414.887L450.06 415.186C450.17 415.191 450.28 415.174 450.383 415.136C450.486 415.098 450.58 415.04 450.66 414.965C450.74 414.89 450.804 414.799 450.849 414.699C450.893 414.598 450.917 414.49 450.918 414.38H450.866ZM407.797 462.376C407.862 462.233 413.335 447.153 429.793 443.552C430.005 443.505 430.19 443.377 430.307 443.194C430.424 443.011 430.464 442.789 430.417 442.577C430.365 442.369 430.234 442.19 430.053 442.076C429.871 441.962 429.652 441.923 429.442 441.966C412.087 445.762 406.328 461.687 406.263 461.843C406.196 462.048 406.212 462.272 406.307 462.466C406.401 462.66 406.567 462.809 406.77 462.883H407.03C407.203 462.898 407.376 462.857 407.524 462.765C407.672 462.674 407.786 462.537 407.849 462.376H407.797Z" fill="#165069"/>
<path opacity="0.2" d="M450.346 333.676L447.187 281.117L450.346 333.676ZM440.349 351.018L420.381 305.817L440.349 351.018ZM491.881 337.875L444.028 344.739L491.881 337.875ZM430.001 375.38L404.092 342.139L430.001 375.38ZM434.551 365.188L470.249 366.982L434.551 365.188ZM426.101 390.681L453.401 393.385L426.101 390.681ZM419.51 406.879L405.951 386.482L419.51 406.879ZM417.95 414.081L450.047 414.38L417.95 414.081ZM411.45 474.297C411.665 474.28 411.865 474.18 412.006 474.017C412.148 473.853 412.219 473.641 412.204 473.426C410.163 442.772 422.019 392.566 441.038 351.356C453.193 325.018 500.838 273.252 501.345 272.732C501.499 272.579 501.585 272.37 501.585 272.154C501.585 271.937 501.499 271.729 501.345 271.575C501.271 271.5 501.181 271.44 501.083 271.399C500.985 271.358 500.88 271.337 500.773 271.337C500.667 271.337 500.562 271.358 500.464 271.399C500.365 271.44 500.276 271.5 500.201 271.575C499.72 272.095 451.88 324.056 439.621 350.628C420.251 392.839 408.551 442.135 410.631 473.53C410.648 473.737 410.741 473.93 410.892 474.072C411.044 474.214 411.243 474.294 411.45 474.297ZM450.333 334.482C450.548 334.469 450.749 334.371 450.893 334.21C451.037 334.05 451.111 333.839 451.1 333.624L447.993 281.039C447.988 280.932 447.962 280.827 447.916 280.73C447.87 280.633 447.805 280.547 447.725 280.475C447.646 280.404 447.552 280.349 447.451 280.314C447.35 280.279 447.242 280.265 447.135 280.272C446.92 280.285 446.719 280.383 446.576 280.544C446.432 280.704 446.358 280.915 446.368 281.13L449.527 333.689C449.537 333.896 449.627 334.091 449.777 334.234C449.927 334.377 450.126 334.456 450.333 334.456V334.482ZM440.635 351.759C440.83 351.671 440.983 351.51 441.06 351.311C441.138 351.112 441.135 350.89 441.051 350.693L421.07 305.492C420.984 305.296 420.824 305.141 420.624 305.063C420.424 304.985 420.201 304.99 420.004 305.076C419.808 305.162 419.654 305.323 419.576 305.523C419.498 305.723 419.502 305.946 419.588 306.142L439.556 351.343C439.619 351.488 439.722 351.612 439.854 351.7C439.985 351.787 440.139 351.835 440.297 351.837C440.432 351.844 440.566 351.817 440.687 351.759H440.635ZM444.093 345.519L491.92 338.681C492.036 338.679 492.15 338.652 492.254 338.602C492.358 338.553 492.451 338.482 492.526 338.394C492.601 338.306 492.657 338.204 492.689 338.093C492.722 337.982 492.731 337.865 492.715 337.751C492.699 337.637 492.659 337.527 492.598 337.429C492.537 337.331 492.456 337.247 492.36 337.182C492.264 337.118 492.156 337.075 492.042 337.055C491.928 337.036 491.811 337.04 491.699 337.069L443.872 343.907C443.659 343.921 443.459 344.019 443.318 344.18C443.176 344.341 443.105 344.551 443.118 344.765C443.132 344.979 443.23 345.178 443.391 345.32C443.552 345.461 443.763 345.533 443.976 345.519H444.093ZM430.456 376.03C430.626 375.897 430.737 375.702 430.763 375.488C430.79 375.273 430.731 375.057 430.599 374.886L404.677 341.58C404.545 341.408 404.349 341.295 404.133 341.267C403.917 341.239 403.699 341.298 403.527 341.431C403.355 341.563 403.242 341.759 403.214 341.975C403.186 342.191 403.245 342.409 403.377 342.581L429.351 375.939C429.427 376.036 429.523 376.115 429.634 376.169C429.744 376.223 429.865 376.251 429.988 376.251C430.182 376.241 430.367 376.163 430.508 376.03H430.456ZM470.964 367.021C470.972 366.806 470.894 366.597 470.748 366.439C470.602 366.281 470.399 366.186 470.184 366.176L434.551 364.369C434.351 364.383 434.163 364.47 434.023 364.613C433.882 364.756 433.799 364.946 433.79 365.147C433.78 365.347 433.844 365.544 433.97 365.701C434.096 365.857 434.275 365.961 434.473 365.994L470.171 367.801C470.386 367.808 470.596 367.73 470.754 367.584C470.912 367.438 471.006 367.236 471.016 367.021H470.964ZM454.155 393.463C454.168 393.356 454.159 393.248 454.129 393.144C454.099 393.041 454.049 392.945 453.981 392.861C453.913 392.777 453.829 392.708 453.734 392.657C453.639 392.607 453.535 392.576 453.427 392.566L426.127 389.875C426.021 389.864 425.914 389.875 425.813 389.905C425.711 389.936 425.616 389.987 425.534 390.055C425.451 390.122 425.383 390.206 425.334 390.3C425.284 390.394 425.253 390.497 425.243 390.603C425.225 390.816 425.291 391.028 425.427 391.193C425.563 391.359 425.759 391.464 425.971 391.487L453.271 394.191H453.349C453.559 394.206 453.766 394.138 453.926 394.002C454.087 393.866 454.188 393.672 454.207 393.463H454.155ZM419.9 407.555C420.081 407.436 420.207 407.25 420.251 407.038C420.295 406.826 420.253 406.605 420.134 406.424L406.64 386.027C406.517 385.851 406.33 385.73 406.119 385.689C405.909 385.648 405.69 385.69 405.509 385.806C405.329 385.925 405.203 386.111 405.159 386.323C405.115 386.535 405.157 386.756 405.275 386.937L418.769 407.334C418.847 407.446 418.95 407.537 419.069 407.6C419.189 407.664 419.323 407.697 419.458 407.698C419.635 407.708 419.809 407.657 419.952 407.555H419.9ZM450.866 414.38C450.863 414.166 450.778 413.962 450.628 413.809C450.477 413.657 450.274 413.568 450.06 413.561L417.963 413.262C417.75 413.262 417.545 413.347 417.394 413.498C417.242 413.649 417.157 413.854 417.157 414.068C417.154 414.175 417.172 414.282 417.211 414.383C417.25 414.483 417.309 414.574 417.385 414.65C417.46 414.727 417.55 414.787 417.65 414.828C417.749 414.869 417.856 414.889 417.963 414.887L450.06 415.186C450.17 415.191 450.28 415.174 450.383 415.136C450.486 415.098 450.58 415.04 450.66 414.965C450.74 414.89 450.804 414.799 450.849 414.699C450.893 414.598 450.917 414.49 450.918 414.38H450.866ZM407.797 462.376C407.862 462.233 413.335 447.153 429.793 443.552C430.005 443.505 430.19 443.377 430.307 443.194C430.424 443.011 430.464 442.789 430.417 442.577C430.365 442.369 430.234 442.19 430.053 442.076C429.871 441.962 429.652 441.923 429.442 441.966C412.087 445.762 406.328 461.687 406.263 461.843C406.196 462.048 406.212 462.272 406.307 462.466C406.401 462.66 406.567 462.809 406.77 462.883H407.03C407.203 462.898 407.376 462.857 407.524 462.765C407.672 462.674 407.786 462.537 407.849 462.376H407.797ZM411.45 474.297C411.665 474.28 411.865 474.18 412.006 474.017C412.148 473.853 412.219 473.641 412.204 473.426C410.163 442.772 422.019 392.566 441.038 351.356C453.193 325.018 500.838 273.252 501.345 272.732C501.499 272.579 501.585 272.37 501.585 272.154C501.585 271.937 501.499 271.729 501.345 271.575C501.271 271.5 501.181 271.44 501.083 271.399C500.985 271.358 500.88 271.337 500.773 271.337C500.667 271.337 500.562 271.358 500.464 271.399C500.365 271.44 500.276 271.5 500.201 271.575C499.72 272.095 451.88 324.056 439.621 350.628C420.251 392.839 408.551 442.135 410.631 473.53C410.648 473.737 410.741 473.93 410.892 474.072C411.044 474.214 411.243 474.294 411.45 474.297ZM450.333 334.482C450.548 334.469 450.749 334.371 450.893 334.21C451.037 334.05 451.111 333.839 451.1 333.624L447.993 281.039C447.988 280.932 447.962 280.827 447.916 280.73C447.87 280.633 447.805 280.547 447.725 280.475C447.646 280.404 447.552 280.349 447.451 280.314C447.35 280.279 447.242 280.265 447.135 280.272C446.92 280.285 446.719 280.383 446.576 280.544C446.432 280.704 446.358 280.915 446.368 281.13L449.527 333.689C449.537 333.896 449.627 334.091 449.777 334.234C449.927 334.377 450.126 334.456 450.333 334.456V334.482ZM440.635 351.759C440.83 351.671 440.983 351.51 441.06 351.311C441.138 351.112 441.135 350.89 441.051 350.693L421.07 305.492C420.984 305.296 420.824 305.141 420.624 305.063C420.424 304.985 420.201 304.99 420.004 305.076C419.808 305.162 419.654 305.323 419.576 305.523C419.498 305.723 419.502 305.946 419.588 306.142L439.556 351.343C439.619 351.488 439.722 351.612 439.854 351.7C439.985 351.787 440.139 351.835 440.297 351.837C440.432 351.844 440.566 351.817 440.687 351.759H440.635ZM444.093 345.519L491.92 338.681C492.036 338.679 492.15 338.652 492.254 338.602C492.358 338.553 492.451 338.482 492.526 338.394C492.601 338.306 492.657 338.204 492.689 338.093C492.722 337.982 492.731 337.865 492.715 337.751C492.699 337.637 492.659 337.527 492.598 337.429C492.537 337.331 492.456 337.247 492.36 337.182C492.264 337.118 492.156 337.075 492.042 337.055C491.928 337.036 491.811 337.04 491.699 337.069L443.872 343.907C443.659 343.921 443.459 344.019 443.318 344.18C443.176 344.341 443.105 344.551 443.118 344.765C443.132 344.979 443.23 345.178 443.391 345.32C443.552 345.461 443.763 345.533 443.976 345.519H444.093ZM430.456 376.03C430.626 375.897 430.737 375.702 430.763 375.488C430.79 375.273 430.731 375.057 430.599 374.886L404.677 341.58C404.612 341.495 404.53 341.423 404.436 341.369C404.343 341.316 404.24 341.281 404.133 341.267C404.026 341.253 403.918 341.26 403.814 341.289C403.71 341.317 403.612 341.365 403.527 341.431C403.442 341.496 403.37 341.578 403.316 341.672C403.263 341.765 403.228 341.868 403.214 341.975C403.2 342.082 403.207 342.19 403.235 342.294C403.263 342.398 403.312 342.496 403.377 342.581L429.351 375.939C429.427 376.036 429.523 376.115 429.634 376.169C429.744 376.223 429.865 376.251 429.988 376.251C430.182 376.241 430.367 376.163 430.508 376.03H430.456ZM470.964 367.021C470.972 366.806 470.894 366.597 470.748 366.439C470.602 366.281 470.399 366.186 470.184 366.176L434.551 364.369C434.351 364.383 434.163 364.47 434.023 364.613C433.882 364.756 433.799 364.946 433.79 365.147C433.78 365.347 433.844 365.544 433.97 365.701C434.096 365.857 434.275 365.961 434.473 365.994L470.171 367.801C470.386 367.808 470.596 367.73 470.754 367.584C470.912 367.438 471.006 367.236 471.016 367.021H470.964ZM454.155 393.463C454.168 393.356 454.159 393.248 454.129 393.144C454.099 393.041 454.049 392.945 453.981 392.861C453.913 392.777 453.829 392.708 453.734 392.657C453.639 392.607 453.535 392.576 453.427 392.566L426.127 389.875C426.021 389.864 425.914 389.875 425.813 389.905C425.711 389.936 425.616 389.987 425.534 390.055C425.451 390.122 425.383 390.206 425.334 390.3C425.284 390.394 425.253 390.497 425.243 390.603C425.225 390.816 425.291 391.028 425.427 391.193C425.563 391.359 425.759 391.464 425.971 391.487L453.271 394.191H453.349C453.559 394.206 453.766 394.138 453.926 394.002C454.087 393.866 454.188 393.672 454.207 393.463H454.155ZM419.9 407.555C420.081 407.436 420.207 407.25 420.251 407.038C420.295 406.826 420.253 406.605 420.134 406.424L406.64 386.027C406.517 385.851 406.33 385.73 406.119 385.689C405.909 385.648 405.69 385.69 405.509 385.806C405.329 385.925 405.203 386.111 405.159 386.323C405.115 386.535 405.157 386.756 405.275 386.937L418.769 407.334C418.847 407.446 418.95 407.537 419.069 407.6C419.189 407.664 419.323 407.697 419.458 407.698C419.635 407.708 419.809 407.657 419.952 407.555H419.9ZM450.866 414.38C450.863 414.166 450.778 413.962 450.628 413.809C450.477 413.657 450.274 413.568 450.06 413.561L417.963 413.262C417.75 413.262 417.545 413.347 417.394 413.498C417.242 413.649 417.157 413.854 417.157 414.068C417.154 414.175 417.172 414.282 417.211 414.383C417.25 414.483 417.309 414.574 417.385 414.65C417.46 414.727 417.55 414.787 417.65 414.828C417.749 414.869 417.856 414.889 417.963 414.887L450.06 415.186C450.17 415.191 450.28 415.174 450.383 415.136C450.486 415.098 450.58 415.04 450.66 414.965C450.74 414.89 450.804 414.799 450.849 414.699C450.893 414.598 450.917 414.49 450.918 414.38H450.866ZM407.797 462.376C407.862 462.233 413.335 447.153 429.793 443.552C430.005 443.505 430.19 443.377 430.307 443.194C430.424 443.011 430.464 442.789 430.417 442.577C430.365 442.369 430.234 442.19 430.053 442.076C429.871 441.962 429.652 441.923 429.442 441.966C412.087 445.762 406.328 461.687 406.263 461.843C406.196 462.048 406.212 462.272 406.307 462.466C406.401 462.66 406.567 462.809 406.77 462.883H407.03C407.203 462.898 407.376 462.857 407.524 462.765C407.672 462.674 407.786 462.537 407.849 462.376H407.797Z" fill="black"/>
<path d="M432.679 451.378H395.876V458.996H399.087L405.73 500.557H422.825L429.468 458.996H432.679V451.378Z" fill="#165069"/>
<path opacity="0.3" d="M432.679 451.378H395.876V458.996H399.087L405.73 500.557H422.825L429.468 458.996H432.679V451.378Z" fill="white"/>
<path d="M101.335 221.018L58.5263 207.043L54.7173 196.981L46.0203 196.708L30.2383 193.718L32.1363 196.981L52.0003 211.398L56.9013 213.842L101.673 237.229L101.335 221.018Z" fill="white" stroke="#263238" stroke-width="1.00396" stroke-miterlimit="10"/>
<path d="M54.7174 196.981L50.6354 194.537L42.4844 197.527L43.8364 199.152L54.7174 196.981Z" fill="white" stroke="#263238" stroke-width="1.00396" stroke-linejoin="round"/>
<path d="M101.335 221.018L58.5263 207.043L54.7173 196.981L46.0203 196.708L30.2383 193.718L32.1363 196.981L52.0003 211.398L56.9013 213.842L101.673 237.229L101.335 221.018Z" fill="white"/>
<path opacity="0.5" d="M101.335 221.018L58.5263 207.043L54.7173 196.981L46.0203 196.708L30.2383 193.718L32.1363 196.981L52.0003 211.398L56.9013 213.842L101.673 237.229L101.335 221.018Z" fill="#165069" stroke="#263238" stroke-width="1.00396" stroke-miterlimit="10"/>
<path d="M101.335 221.018L58.5263 207.043L54.7173 196.981L46.0203 196.708L30.2383 193.718L32.1363 196.981L52.0003 211.398L56.9013 213.842L101.673 237.229L101.335 221.018Z" stroke="#263238" stroke-width="1.00396" stroke-miterlimit="10"/>
<path d="M54.7174 196.981L50.6354 194.537L42.4844 197.527L43.8364 199.152L54.7174 196.981Z" fill="white"/>
<path opacity="0.5" d="M54.7174 196.981L50.6354 194.537L42.4844 197.527L43.8364 199.152L54.7174 196.981Z" fill="#165069" stroke="#263238" stroke-width="1.00396" stroke-linejoin="round"/>
<path d="M54.7174 196.981L50.6354 194.537L42.4844 197.527L43.8364 199.152L54.7174 196.981Z" stroke="#263238" stroke-width="1.00396" stroke-linejoin="round"/>
<path d="M110.422 130.317C110.422 130.317 109.759 136.167 111.41 139.924C113.061 143.681 122.226 156.408 122.226 156.408L105.118 170.123C105.118 170.123 98.0199 155.823 96.6679 153.509C95.3159 151.195 93.6909 141.237 98.0979 134.1C102.505 126.963 108.849 125.039 110.422 130.317Z" fill="white"/>
<g style="mix-blend-mode:multiply" opacity="0.5">
<path d="M101.635 149.115L109.058 164.507L105.106 170.136L97.6436 156.811L101.635 149.115Z" fill="#165069"/>
</g>
<path d="M110.422 130.317C110.422 130.317 109.759 136.167 111.41 139.924C113.061 143.681 122.226 156.408 122.226 156.408L105.118 170.123C105.118 170.123 98.0199 155.823 96.6679 153.509C95.3159 151.195 93.6909 141.237 98.0979 134.1C102.505 126.963 108.849 125.039 110.422 130.317Z" stroke="#263238" stroke-width="1.00396" stroke-miterlimit="10"/>
<path d="M115.726 119.605C114.673 113.105 107.224 99.8841 95.4074 100.391C87.7374 100.729 84.1494 102.276 80.8214 104.161C78.1086 105.759 75.5801 107.651 73.2814 109.803C67.5094 116.732 65.4814 118.63 66.5994 123.934C66.5077 126.05 66.8392 128.162 67.5744 130.148C69.3424 134.867 70.5514 137.948 72.0854 140.197C71.6174 142.394 70.3954 148.192 70.3304 149.518C70.2654 150.844 74.2304 149.921 76.2324 149.414C79.9504 157.734 86.7624 163.506 88.8814 164.169C92.5734 165.326 98.4104 159.255 101.504 154.549C104.598 149.843 102.258 144.552 102.271 142.446C102.284 140.34 109.226 135.712 111.8 134.243C114.374 132.774 116.766 126.092 115.726 119.605Z" fill="white"/>
<g style="mix-blend-mode:multiply" opacity="0.5">
<path d="M66.651 123.934C66.5593 126.05 66.8908 128.162 67.626 130.148C69.394 134.867 70.603 137.948 72.137 140.197C71.669 142.394 70.447 148.192 70.382 149.518C70.317 150.844 74.282 149.921 76.284 149.414C80.002 157.734 86.814 163.506 88.933 164.169C92.625 165.326 98.462 159.255 101.556 154.549C102.329 153.374 102.831 152.042 103.025 150.649C102.856 150.038 102.739 149.661 102.739 149.661C102.739 149.661 100.997 156.356 97.539 155.485C94.081 154.614 88.79 147.685 85.839 145.293C82.888 142.901 84.097 139.755 83.512 136.193C82.927 132.631 74.191 129.498 73.606 127.457C73.021 125.416 75.062 116.966 75.062 116.966C75.062 116.966 78.377 112.546 77.662 114.366C77.1567 115.944 76.9734 117.608 77.123 119.258C77.2726 120.908 77.7521 122.512 78.533 123.973C79.081 125.126 79.9503 126.097 81.0365 126.768C82.1227 127.439 83.3795 127.782 84.656 127.756L87.828 112.039L81.133 106.501L73.333 109.751C67.509 116.732 65.52 118.63 66.651 123.934Z" fill="#165069"/>
</g>
<path d="M115.726 119.605C114.673 113.105 107.224 99.8841 95.4074 100.391C87.7374 100.729 84.1494 102.276 80.8214 104.161C78.1086 105.759 75.5801 107.651 73.2814 109.803C67.5094 116.732 65.4814 118.63 66.5994 123.934C66.5077 126.05 66.8392 128.162 67.5744 130.148C69.3424 134.867 70.5514 137.948 72.0854 140.197C71.6174 142.394 70.3954 148.192 70.3304 149.518C70.2654 150.844 74.2304 149.921 76.2324 149.414C79.9504 157.734 86.7624 163.506 88.8814 164.169C92.5734 165.326 98.4104 159.255 101.504 154.549C104.598 149.843 102.258 144.552 102.271 142.446C102.284 140.34 109.226 135.712 111.8 134.243C114.374 132.774 116.766 126.092 115.726 119.605Z" stroke="#263238" stroke-miterlimit="10"/>
<path d="M73.6973 136.271L74.9973 139.989C74.9973 139.989 77.7923 140.912 81.1983 137.194" stroke="#263238" stroke-miterlimit="10" stroke-linecap="round"/>
<path d="M83.3047 153.639C83.3047 153.639 86.3987 153.327 87.6467 148.985" stroke="#263238" stroke-miterlimit="10" stroke-linecap="round"/>
<path d="M71.5264 133.164C71.5264 133.164 72.4494 130.369 78.0264 130.369" stroke="#263238" stroke-miterlimit="10" stroke-linecap="round"/>
<path d="M100.113 95.2172C96.0608 94.6345 91.9742 94.3218 87.8803 94.2812C87.8803 94.2812 75.6343 87.2222 63.8693 94.7492C52.1043 102.276 57.7593 115.458 57.7593 118.747C57.7593 122.036 53.9893 122.049 56.3423 126.287C58.6953 130.525 66.6513 128.185 66.6513 128.185C66.7353 126.587 67.1577 125.024 67.8906 123.601C68.6234 122.178 69.6499 120.927 70.9022 119.93C75.1402 116.641 78.5203 115.926 79.9243 116.875C79.9243 116.875 78.9883 123.934 80.3923 126.755C80.3923 126.755 85.0983 129.108 86.5153 129.108C87.9323 129.108 85.5923 131.097 90.2853 132.865C91.1403 133.172 92.0548 133.277 92.9571 133.171C93.8593 133.065 94.7247 132.751 95.4853 132.254C96.1743 129.394 97.6823 125.091 100.49 126.092C104.611 127.561 108.368 137.701 102.791 141.159C109.499 142.381 117.624 130.512 118.105 119.696C118.586 108.88 107.081 96.4392 100.113 95.2172Z" fill="#263238"/>
<path d="M80.1318 112.234C80.1318 112.234 83.5898 110.375 87.8278 114.353C92.0658 118.331 100.308 123.648 111.228 120.723" stroke="white" stroke-width="0.5" stroke-linecap="round" stroke-linejoin="round"/>
<path d="M79.6514 109.049C79.6514 109.049 82.0304 105.331 86.0084 105.331C89.9864 105.331 99.2814 110.908 106.704 110.908" stroke="white" stroke-width="0.5" stroke-linecap="round" stroke-linejoin="round"/>
<path d="M76.9469 116.212C76.9469 116.212 72.4359 110.648 68.1979 115.159C63.9599 119.67 66.6509 123.934 66.6509 123.934" stroke="white" stroke-width="0.5" stroke-linecap="round" stroke-linejoin="round"/>
<path d="M58.916 119.93C61.5011 117.599 63.108 114.376 63.414 110.908C63.947 105.071 71.916 100.027 76.947 104.811" stroke="white" stroke-width="0.5" stroke-linecap="round" stroke-linejoin="round"/>
<path d="M67.1318 98.7011C67.1318 98.7011 75.1008 91.0051 81.7308 100.82" stroke="white" stroke-width="0.5" stroke-linecap="round" stroke-linejoin="round"/>
<path d="M131.99 477.092C131.99 477.092 136.891 484.71 136.345 489.611L135.812 494.512C135.812 494.512 117.833 499.439 114.024 499.439C110.215 499.439 90.0517 497.528 90.0517 497.528L89.1807 494.07C89.1197 493.815 89.1485 493.546 89.2621 493.31C89.3757 493.073 89.5673 492.882 89.8047 492.77L107.784 484.385L113.452 478.184L131.99 477.092Z" fill="white" stroke="#263238" stroke-width="1.00396" stroke-miterlimit="10"/>
<path d="M116.753 495.604C121.628 495.981 130.884 493.004 136.253 491.106L135.876 494.512C135.876 494.512 117.832 499.439 114.023 499.439C110.214 499.439 90.0508 497.528 90.0508 497.528L89.4268 495.058C92.6508 495.071 110.305 495.11 116.753 495.604Z" fill="#165069" stroke="#263238" stroke-width="1.00396" stroke-miterlimit="10"/>
<path d="M107.809 484.385L81.6403 495.773C81.6403 495.773 79.4043 501.376 81.6403 502.494C83.8763 503.612 132.626 502.494 132.626 502.494C132.626 502.494 135.993 493.641 130.676 487.7C125.359 481.759 107.809 484.385 107.809 484.385Z" fill="white" stroke="#263238" stroke-width="1.00396" stroke-miterlimit="10"/>
<path d="M132.626 502.494C132.626 502.494 83.8763 503.612 81.6403 502.494C80.5613 501.948 80.5223 500.375 80.7693 498.88H133.484C133.312 500.109 133.025 501.319 132.626 502.494Z" fill="#165069" stroke="#263238" stroke-width="1.00396" stroke-miterlimit="10"/>
<path d="M95.4335 286.512C95.4335 286.512 88.5955 316.815 86.0085 335.769C83.4215 354.723 81.9005 392.696 82.4465 397.051C82.9925 401.406 110.215 474.375 110.215 474.375L112.932 480.875L131.99 477.066C131.99 477.066 123.28 449.298 120.017 434.049C116.754 418.8 109.617 393.749 109.617 389.394C109.617 385.039 126.517 301.865 127.726 296.405C128.935 290.945 134.421 282.56 134.421 282.56L97.9295 281.819L95.4335 286.512Z" fill="#165069" stroke="#263238" stroke-width="1.00396" stroke-miterlimit="10"/>
<path d="M95.4328 286.512C95.4328 286.512 91.4289 314.189 93.0799 333.429C94.7309 352.669 98.2799 393.632 98.2799 399.729C98.2799 405.826 108.121 442.239 108.68 453.679C109.551 470.202 108.329 478.379 108.329 478.379L107.744 484.372C107.744 484.372 119.223 486.01 121.732 486.725C124.63 487.472 127.62 487.796 130.611 487.687C130.611 487.687 134.784 469.318 134.784 453.666C134.784 438.014 131.313 405.8 129.584 392.748C127.855 379.696 133.302 329.347 136.396 319.948C139.49 310.549 146.25 290.646 141.7 280.48C137.15 270.314 95.4328 286.512 95.4328 286.512Z" fill="#165069" stroke="#263238" stroke-width="1.00396" stroke-miterlimit="10"/>
<path d="M146.758 275.384L146.342 287.76C146.342 287.76 138.932 289.229 128.948 290.958C120.706 292.388 100.01 290.581 93.0415 289.905C92.4065 289.849 91.8194 289.544 91.408 289.057C90.9966 288.57 90.794 287.941 90.8445 287.305L91.5205 276.125L146.758 275.384Z" fill="#263238"/>
<path d="M117.793 152.014C117.793 152.014 106.093 164.663 101.686 172.528C97.2789 180.393 95.5369 192.444 93.8859 201.934C92.2349 211.424 96.7069 233.706 95.4459 243.937L91.4549 276.164C91.4549 276.164 90.5969 278.348 93.4699 280.74C96.3429 283.132 110.37 284.003 123.045 284.64C127.673 284.874 141.492 281.897 143.754 281.754C146.484 281.585 146.575 278.114 146.692 275.384C147.238 262.553 149.552 228.35 151.073 213.452C154.206 183.071 137.059 153.743 117.793 152.014Z" fill="white" stroke="#263238" stroke-width="1.00396" stroke-miterlimit="10"/>
<g style="mix-blend-mode:multiply">
<path d="M149.643 230.729C150.163 223.982 150.683 217.859 151.138 213.452C151.268 212.152 151.346 210.852 151.411 209.552L120.328 214.752L93.626 205.652C93.6289 211.177 93.9414 216.698 94.562 222.188L120.757 229.52L149.643 230.729Z" fill="#165069"/>
</g>
<g style="mix-blend-mode:multiply">
<path d="M116.637 153.288C114.869 155.251 111.359 159.242 108.018 163.48L127.752 183.539L134.252 180.939L116.637 153.288Z" fill="#165069"/>
</g>
<path d="M117.793 152.014C117.793 152.014 106.093 164.663 101.686 172.528C100.38 174.918 99.3211 177.436 98.5273 180.042L122.057 152.859C120.667 152.438 119.239 152.155 117.793 152.014Z" fill="#263238"/>
<g style="mix-blend-mode:multiply">
<path d="M94.7959 196.812L120.328 205.21L151.333 201.648C150.847 193.925 149.131 186.328 146.25 179.145L121.251 189.168L98.9039 179.041C97.0766 184.85 95.7031 190.791 94.7959 196.812Z" fill="#165069"/>
</g>
<g style="mix-blend-mode:multiply">
<path d="M138.749 262.553C125.799 264.727 112.512 263.642 100.087 259.394L93.8598 257.262L91.9229 272.862L99.0209 274.851C112.514 278.624 126.618 279.71 140.53 278.049L146.263 277.36C146.561 276.729 146.729 276.043 146.757 275.345C146.913 271.874 147.186 266.83 147.537 261.045L138.749 262.553Z" fill="#165069"/>
</g>
<g style="mix-blend-mode:multiply">
<path d="M142.22 241.311C129.27 243.494 115.979 242.404 103.558 238.139L95.6279 235.422C95.8246 238.254 95.7855 241.098 95.5109 243.924L94.5879 251.425L102.492 253.635C115.98 257.412 130.079 258.503 143.988 256.846L147.888 256.378C148.213 251.178 148.59 245.64 148.993 240.167L142.22 241.311Z" fill="#165069"/>
</g>
<path d="M20.2556 186.337L45.3916 206.547L46.475 205.199L21.339 184.989L20.2556 186.337Z" fill="#263238"/>
<path d="M129.896 166.041C129.896 166.041 139.113 172.32 139.321 187.153C139.412 193.653 138.736 199.724 137.241 210.371C135.746 221.018 126.464 255.689 119.236 259.901C112.008 264.113 100.789 256.157 100.789 256.157L46.5272 220.134L33.4102 209.539L26.9102 197.267L28.9512 193.367L44.9542 205.639L36.3352 197.67L38.0252 195.525L41.1452 197.696L50.2452 201.102L52.2342 214.102L55.0422 216.026L106.951 234.993C106.951 234.993 106.301 207.056 106.782 201.713C107.263 196.37 107.926 182.941 113.646 173.204" fill="white"/>
<g style="mix-blend-mode:multiply" opacity="0.5">
<path d="M106.588 213.881C106.588 223.527 106.913 234.993 106.913 234.993L55.0556 216.104L52.2476 214.18L50.2586 201.18L41.1586 197.774L38.0516 195.564L36.3616 197.709L44.9546 205.639L28.9516 193.367L27.0146 197.202L33.5146 209.474L46.6316 220.134L49.9336 222.331L121.629 245.432L106.588 213.881Z" fill="#165069"/>
</g>
<path d="M129.896 166.041C129.896 166.041 139.113 172.32 139.321 187.153C139.412 193.653 138.736 199.724 137.241 210.371C135.746 221.018 126.464 255.689 119.236 259.901C112.008 264.113 100.789 256.157 100.789 256.157L46.5272 220.134L33.4102 209.539L26.9102 197.267L28.9512 193.367L44.9542 205.639L36.3352 197.67L38.0252 195.525L41.1452 197.696L50.2452 201.102L52.2342 214.102L55.0422 216.026L106.951 234.993C106.951 234.993 106.301 207.056 106.782 201.713C107.263 196.37 107.926 182.941 113.646 173.204" stroke="#263238" stroke-width="1.00396" stroke-miterlimit="10"/>
<path d="M106.951 234.993L126.763 249.293L131.898 240.193C131.898 240.193 135.447 237.398 135.967 235.292C136.487 233.186 135.824 229.767 136.357 227.661C136.89 225.555 139.542 223.579 139.789 218.483C140.036 213.387 139.789 209.136 139.789 209.136C139.789 209.136 144.079 191.495 143.611 183.825C143.143 176.155 135.746 162.596 129.818 162.297C123.89 161.998 116.181 162.895 110.201 171.943C104.221 180.991 105.443 207.407 104.507 209.058C103.571 210.709 104.871 218.86 104.871 218.86C104.352 219.248 103.921 219.741 103.607 220.309C103.293 220.876 103.104 221.503 103.051 222.149C102.947 224.268 105.235 229.481 105.235 229.481L106.951 234.993Z" fill="white" stroke="#263238" stroke-width="1.00396" stroke-miterlimit="10"/>
<g style="mix-blend-mode:multiply">
<path d="M105.028 202.272C105.068 204.541 104.899 206.808 104.521 209.045C103.689 210.527 104.638 217.222 104.846 218.587C115.989 222.048 127.772 222.937 139.309 221.187C139.557 220.283 139.705 219.355 139.751 218.418C140.011 213.335 139.751 209.071 139.751 209.071C139.751 209.071 140.128 207.498 140.648 205.106C128.7 205.866 116.705 204.911 105.028 202.272Z" fill="#165069"/>
</g>
<g style="mix-blend-mode:multiply">
<path d="M109.395 173.386C107.536 177.117 106.496 182.72 105.898 188.401C117.7 192.905 130.424 194.454 142.961 192.912C143.462 189.906 143.684 186.859 143.624 183.812C143.399 181.404 142.83 179.039 141.934 176.792C130.987 177.048 120.052 175.903 109.395 173.386Z" fill="#165069"/>
</g>
<path d="M105.235 229.624L106.912 234.993L126.724 249.293L131.859 240.193C131.859 240.193 135.408 237.398 135.928 235.292C136.021 234.926 136.078 234.552 136.097 234.174C125.657 233.994 115.284 232.465 105.235 229.624Z" fill="#263238"/>
<path d="M119.574 486.556C119.574 486.556 120.016 475.298 122.174 458.84C124.332 442.382 119.145 419.008 118.274 415.108C117.403 411.208 118.716 402.55 117.845 399.508C116.974 396.466 112.762 383.492 115.245 368.438C117.728 353.384 119.743 313.591 119.743 313.591C119.743 313.591 113.49 308.508 111.657 301.891C109.824 295.274 111.228 293.194 111.228 293.194" stroke="#263238" stroke-width="1.00396" stroke-miterlimit="10"/>
<path d="M122.473 293.805L120.068 307.117" stroke="#263238" stroke-width="1.00396" stroke-miterlimit="10"/>
</svg>
